{"title":"Jonah Hex 2010 BRRip XVID AC3-lOVE","uid":5860440,"size":1467287608,"categoryP":"video","categoryS":"movies","magnet":"?xt=urn:btih:f594c8505c6733a7f90009d246556eba0da0a4aa&amp;dn=Jonah+Hex+2010+BRRip+XVID+AC3-lOVE&amp;tr=udp%3A%2F%2Ftracker.openbittorrent.com%3A80&amp;tr=udp%3A%2F%2Fopen.demonii.com%3A1337&amp;tr=udp%3A%2F%2Ftracker.coppersurfer.tk%3A6969&amp;tr=udp%3A%2F%2Fexodus.desync.com%3A6969","seeders":1,"leechers":0,"uploader":"IwannaFan2","files":2,"time":1285947439,"description":"Filename:\nJonah Hex 2010 BRRip XVID AC3-lOVE\n &lt;a href=&quot;\nhttp://www.imdb.com/title/tt1075747/&quot; rel=&quot;nofollow&quot; target=&quot;_NEW&quot;&gt;\nhttp://www.imdb.com/title/tt1075747/&lt;/a&gt;\n\nVideo\nID                               : 0\nFormat                           : MPEG-4 Visual\nFormat profile                   : AdvancedSimple@L5\nFormat settings, BVOP            : Yes\nFormat settings, QPel            : No\nFormat settings, GMC             : No warppoints\nFormat settings, Matrix          : Default (H.263)\nMuxing mode                      : Packed bitstream\nCodec ID                         : XVID\nCodec ID/Hint                    : XviD\nDuration                         : 1h 21mn\nBit rate                         : 1 945 Kbps\nWidth                            : 720 pixels\nHeight                           : 304 pixels\nDisplay aspect ratio             : 2.35:1\nFrame rate                       : 23.976 fps\nResolution                       : 24 bits\nColorimetry                      : 4:2:0\nScan type                        : Progressive\nBits/(Pixel*Frame)               : 0.371\nStream size                      : 1.11 GiB (81%)\nWriting library                  : XviD 1.2.1 (UTC 2008-12-04)\n\nAudio\nID                               : 1\nFormat                           : AC-3\nFormat/Info                      : Audio Coding 3\nCodec ID                         : 2000\nDuration                         : 1h 21mn\nBit rate mode                    : Constant\nBit rate                         : 448 Kbps\nChannel(s)                       : 6 channels\nChannel positions                : Front: L C R, Surround: L R, LFE\nSampling rate                    : 48.0 KHz\nStream size                      : 261 MiB (19%)\nAlignment                        : Split accross interleaves\nInterleave, duration             : 64 ms (1.53 video frames)\nInterleave, preload duration     : 500 ms","torrent":{"xt":"urn:btih:f594c8505c6733a7f90009d246556eba0da0a4aa","amp;dn":"Jonah+Hex+2010+BRRip+XVID+AC3-lOVE","amp;tr":["udp%3A%2F%2Ftracker.openbittorrent.com%3A80","udp%3A%2F%2Fopen.demonii.com%3A1337","udp%3A%2F%2Ftracker.coppersurfer.tk%3A6969","udp%3A%2F%2Fexodus.desync.com%3A6969"],"infoHash":"f594c8505c6733a7f90009d246556eba0da0a4aa","infoHashBuffer":{"type":"Buffer","data":[245,148,200,80,92,103,51,167,249,0,9,210,70,85,110,186,13,160,164,170]},"announce":[],"urlList":[]}}